<?xml version="1.0" encoding="UTF-8"?>
<svg xmlns="http://www.w3.org/2000/svg" version="1.1" viewBox="0 0 19.8 8.1">
  <defs>
    <style>
      .cls-1 {
        fill: #222;
      }
    </style>
  </defs>
  <!-- Generator: Adobe Illustrator 28.6.0, SVG Export Plug-In . SVG Version: 1.2.0 Build 709)  -->
  <g>
    <g id="_레이어_1" data-name="레이어_1">
      <g id="_레이어_1-2" data-name="_레이어_1">
        <path class="cls-1" d="M0,8v-.6c0-.4.1-.8.3-1.1s.5-.6.9-.8.9-.3,1.3-.4.9-.2,1.4-.2h1c.3,0,.6.1.9.2-.3.3-.5.6-.7,1s-.3.8-.3,1.2v.6H0ZM6,8v-.6c0-.4,0-.8.3-1.1s.5-.6.9-.8.9-.3,1.3-.4.9-.2,1.4-.2,1,0,1.4.2.9.2,1.3.4c.4.2.7.4.9.8s.3.7.3,1.1v.6h-7.8ZM15,8v-.6c0-.4,0-.8-.3-1.2s-.4-.7-.7-1c.3,0,.6-.2.9-.2h1c.5,0,1,0,1.4.2s.9.2,1.3.4.7.4.9.8.3.7.3,1.1v.6h-5,.2ZM4,4c-.6,0-1-.2-1.4-.6s-.6-.9-.6-1.4.2-1,.6-1.4c.4-.4.9-.6,1.4-.6s1,.2,1.4.6c.4.4.6.9.6,1.4s-.2,1-.6,1.4-.9.6-1.4.6ZM10,4c-.6,0-1-.2-1.4-.6s-.6-.9-.6-1.4.2-1,.6-1.4.9-.6,1.4-.6,1,.2,1.4.6c.4.4.6.9.6,1.4s-.2,1-.6,1.4-.9.6-1.4.6ZM16,4c-.6,0-1-.2-1.4-.6s-.6-.9-.6-1.4.2-1,.6-1.4c.4-.4.9-.6,1.4-.6s1,.2,1.4.6c.4.4.6.9.6,1.4s-.2,1-.6,1.4-.9.6-1.4.6Z"/>
      </g>
    </g>
  </g>
</svg>